<?xml version="1.0" standalone="no"?>
<!DOCTYPE svg PUBLIC "-//W3C//DTD SVG 20010904//EN"
 "http://www.w3.org/TR/2001/REC-SVG-20010904/DTD/svg10.dtd">
<svg version="1.0" xmlns="http://www.w3.org/2000/svg"
 width="512.000000pt" height="512.000000pt" viewBox="0 0 512.000000 512.000000"
 preserveAspectRatio="xMidYMid meet">
<metadata>
Created by potrace 1.14, written by Peter Selinger 2001-2017
</metadata>
<g transform="translate(0.000000,512.000000) scale(0.100000,-0.100000)"
fill="#000000" stroke="none">
<path d="M701 5109 c-330 -43 -586 -271 -673 -599 l-23 -85 0 -1865 0 -1865
23 -85 c79 -297 285 -503 582 -582 l85 -23 1865 0 1865 0 85 23 c297 79 503
285 582 582 l23 85 0 1865 0 1865 -23 85 c-78 294 -280 498 -577 582 l-80 23
-1835 1 c-1009 1 -1864 -2 -1899 -7z m819 -728 c80 -11 336 -54 569 -95 234
-42 441 -76 460 -76 20 0 216 32 436 70 688 121 789 133 935 106 233 -42 408
-215 455 -448 28 -142 20 -269 -85 -1303 -28 -269 -64 -627 -80 -795 -17 -168
-37 -334 -46 -370 -24 -99 -79 -195 -159 -275 -73 -73 -114 -98 -595 -362 -91
-50 -250 -138 -355 -196 -335 -185 -389 -207 -505 -207 -116 0 -184 28 -500
205 -91 50 -253 141 -360 200 -547 303 -586 330 -670 458 -61 94 -88 190 -106
390 -9 95 -52 546 -96 1002 -84 867 -101 1132 -79 1248 16 83 79 210 136 274
85 96 209 163 337 182 98 14 152 12 308 -8z"/>
<path d="M1271 3979 c-61 -12 -106 -57 -122 -122 -14 -61 -9 -163 25 -517 14
-140 32 -338 41 -440 48 -565 127 -1324 141 -1361 15 -36 64 -89 84 -89 5 0
10 125 12 278 3 265 4 279 26 323 35 73 84 113 246 202 559 309 572 316 658
317 l47 0 3 248 3 247 29 53 c33 60 76 101 139 134 35 19 58 23 132 23 l90 0
362 -182 c378 -190 411 -212 455 -296 l23 -42 5 -655 5 -654 37 37 c58 58 37
-110 208 1622 33 336 60 637 60 670 -1 98 -31 159 -95 193 -48 26 -173 18
-425 -27 -454 -81 -844 -141 -912 -141 -67 0 -176 17 -838 130 -324 55 -377
61 -439 49z"/>
<path d="M2840 1900 c0 -495 3 -900 8 -900 4 0 66 32 137 71 72 39 163 89 203
111 l72 40 0 686 0 687 -205 103 c-113 56 -207 102 -210 102 -3 0 -5 -405 -5
-900z"/>
<path d="M2205 2046 c-33 -18 -124 -68 -202 -111 l-143 -79 0 -321 0 -321 178
-99 c97 -54 192 -107 210 -117 l32 -20 0 551 c0 303 -3 551 -7 551 -5 -1 -35
-16 -68 -34z"/>
</g>
</svg>
