<svg width="98" height="107" viewBox="0 0 98 107" fill="none" xmlns="http://www.w3.org/2000/svg">
<path fill-rule="evenodd" clip-rule="evenodd" d="M89.7916 83.2686C88.3765 85.4145 86.6661 86.7995 85.2775 87.7394C84.1515 88.5015 82.8363 89.2245 81.8139 89.7866L56.5309 103.704L56.4048 103.773C55.9036 104.05 54.9898 104.555 54.0848 104.946C52.8869 105.464 51.0359 106.098 48.697 106.094C46.3581 106.089 44.5096 105.448 43.3137 104.925C42.41 104.531 41.4983 104.022 40.9982 103.743L40.8724 103.673L15.8757 89.7861C14.855 89.2199 13.5418 88.4912 12.4185 87.7244C11.033 86.7786 9.32727 85.3862 7.92035 83.2334C6.51344 81.0806 5.92286 78.9595 5.61279 77.3108C5.36141 75.9741 5.2213 74.4793 5.11237 73.3171L0.458421 23.9647C0.196152 21.1996 -0.100019 18.0769 0.032833 15.4348C0.187831 12.3523 0.995107 7.72616 4.96607 4.05348C8.93703 0.380795 13.612 -0.0635095 16.6972 0.0221751C19.3416 0.0956163 22.4316 0.63422 25.1678 1.11115L44.1508 4.40954C47.6951 5.02535 48.2494 5.08541 48.7315 5.08603C49.2135 5.08665 49.7681 5.02801 53.3139 4.4213L72.8623 1.07633C75.6044 0.605618 78.6999 0.0742416 81.3474 0.00764012C84.4353 -0.0700386 89.1157 0.386952 93.0792 4.07821C97.0426 7.76947 97.8309 12.4056 97.9728 15.4911C98.0945 18.1367 97.7843 21.2621 97.5096 24.0308L92.6406 73.3686C92.5267 74.5296 92.3801 76.0238 92.1231 77.3585C91.8061 79.0051 91.2067 81.1227 89.7916 83.2686ZM85.7285 11.9709C83.775 10.1516 80.5743 10.6992 74.173 11.7945L55.1329 15.0523C51.9329 15.5998 50.3329 15.8736 48.7177 15.8715C47.1024 15.8695 45.5031 15.5916 42.3045 15.0359L23.829 11.8258C17.441 10.7159 14.247 10.161 12.2894 11.9716C10.3318 13.7821 10.6361 17.0097 11.2448 23.4647L15.8274 72.0609C16.0886 74.8314 16.2193 76.2167 16.9488 77.333C17.447 78.0953 18.1722 78.6522 19.3567 79.3591L19.3567 66.2855C19.3567 63.3254 20.9736 60.6016 23.5724 59.1841L40.4247 49.9919C42.1288 49.0624 43.9511 48.8167 45.6464 49.1093L45.6464 38.0393C45.6464 32.026 51.9747 28.115 57.3531 30.8042L74.3018 39.2785C77.0423 40.6488 78.7734 43.4497 78.7734 46.5137V79.104C79.7276 78.5113 80.3455 78.0013 80.7876 77.331C81.5214 76.2183 81.658 74.8343 81.9311 72.0663L86.7254 23.4848C87.3632 17.0218 87.682 13.7903 85.7285 11.9709ZM67.9879 85.0855V48.1801L56.4319 42.4022L56.432 91.4466L67.9879 85.0855ZM41.6019 91.7402L30.1422 85.3737L30.1422 67.8862L41.6018 61.6355L41.6019 91.7402Z" fill="black"/>
</svg>
